<svg width="300" height="299" viewBox="0 0 300 299" fill="none" xmlns="http://www.w3.org/2000/svg">
<path d="M299.027 149.769C299.027 232.078 232.094 298.797 149.506 298.797C66.9185 298.797 0 232.078 0 149.769C0 67.4607 66.9329 0.742188 149.52 0.742188C232.108 0.742188 299.041 67.4607 299.041 149.769" fill="#FFE000"/>
<path d="M77.6675 180.652C93.5819 177.143 105.485 163.02 105.485 146.107C105.485 126.561 89.5853 110.727 69.9917 110.727C50.398 110.727 34.498 126.561 34.498 146.107V199.493H48.6955V175.201C63.0661 190.159 83.3234 199.493 105.745 199.493V186.851C95.7029 186.851 86.1946 184.607 77.6675 180.652M48.8542 146.351C48.8542 134.543 58.4635 124.95 70.3379 124.95C82.2124 124.95 91.7928 134.543 91.7928 146.351C91.7928 158.159 82.2124 167.752 70.3379 167.752C58.4635 167.752 48.8542 158.173 48.8542 146.351Z" fill="black"/>
<path fill-rule="evenodd" clip-rule="evenodd" d="M152.19 111.188C132.582 111.188 116.682 127.037 116.682 146.582V199.983H130.879V174.9C136.824 179.33 144.182 181.976 152.19 181.976C171.798 181.976 187.683 166.141 187.683 146.596C187.683 127.051 171.798 111.202 152.19 111.202M152.247 167.292C140.647 167.292 131.24 157.929 131.24 146.366C131.24 134.803 140.647 125.44 152.247 125.44C163.848 125.44 173.226 134.803 173.226 146.366C173.226 157.929 163.819 167.292 152.247 167.292" fill="black"/>
<path fill-rule="evenodd" clip-rule="evenodd" d="M229.02 111.188C209.412 111.188 193.526 127.037 193.526 146.582V199.983H207.724V174.9C213.654 179.33 221.027 181.976 229.02 181.976C248.642 181.976 264.528 166.141 264.528 146.596C264.528 127.051 248.642 111.202 229.02 111.202M229.078 167.292C217.463 167.292 208.07 157.929 208.07 146.366C208.07 134.803 217.463 125.44 229.078 125.44C240.692 125.44 250.056 134.803 250.056 146.366C250.056 157.929 240.664 167.292 229.078 167.292Z" fill="black"/>
</svg>
