<?xml version="1.0" standalone="no"?>
<!DOCTYPE svg PUBLIC "-//W3C//DTD SVG 20010904//EN"
 "http://www.w3.org/TR/2001/REC-SVG-20010904/DTD/svg10.dtd">
<svg version="1.0" xmlns="http://www.w3.org/2000/svg"
 width="50.000000pt" height="50.000000pt" viewBox="0 0 50.000000 50.000000"
 preserveAspectRatio="xMidYMid meet">

<g transform="translate(0.000000,50.000000) scale(0.100000,-0.100000)"
fill="#000000" stroke="none">
<path d="M152 484 c-25 -17 -31 -77 -9 -91 8 -5 2 -9 -18 -13 l-30 -5 -3 -103
c-3 -101 0 -108 30 -103 5 0 8 -32 8 -73 0 -81 16 -110 48 -89 12 7 22 7 34 0
25 -16 48 8 48 51 0 26 -9 45 -35 73 -34 38 -35 41 -35 124 l0 85 29 -6 c33
-7 71 10 71 31 0 10 -10 15 -27 15 -21 0 -24 3 -15 12 19 19 14 66 -8 88 -24
24 -57 26 -88 4z"/>
<path d="M305 330 c-3 -5 -24 -15 -45 -21 l-40 -12 0 -63 c0 -61 1 -63 42 -98
23 -20 47 -36 53 -36 6 0 30 17 53 38 41 38 42 41 42 100 0 52 -3 62 -17 62
-10 0 -32 9 -50 20 -18 11 -35 15 -38 10z m75 -101 c0 -41 -4 -50 -33 -72
l-33 -25 -32 25 c-28 21 -32 30 -32 72 0 44 2 47 33 56 20 7 44 6 65 0 30 -9
32 -13 32 -56z"/>
<path d="M300 245 c0 -8 -7 -15 -15 -15 -8 0 -15 -7 -15 -15 0 -8 7 -15 15
-15 8 0 15 -4 15 -10 0 -15 19 -12 36 4 16 17 19 36 4 36 -5 0 -10 7 -10 15 0
8 -7 15 -15 15 -8 0 -15 -7 -15 -15z"/>
</g>
</svg>
