<?xml version="1.0" standalone="no"?>
<!DOCTYPE svg PUBLIC "-//W3C//DTD SVG 20010904//EN"
 "http://www.w3.org/TR/2001/REC-SVG-20010904/DTD/svg10.dtd">
<svg version="1.0" xmlns="http://www.w3.org/2000/svg"
 width="80.000000pt" height="80.000000pt" viewBox="0 0 80.000000 80.000000"
 preserveAspectRatio="xMidYMid meet">

<g transform="translate(0.000000,80.000000) scale(0.100000,-0.100000)"
fill="#000000" stroke="none">
<path d="M323 640 c-13 -5 -23 -17 -23 -26 0 -13 7 -15 38 -10 59 11 73 17 69
29 -5 15 -55 19 -84 7z"/>
<path d="M447 643 c-14 -14 -6 -24 39 -44 32 -15 48 -19 56 -11 19 19 -1 35
-68 56 -11 3 -23 3 -27 -1z"/>
<path d="M219 569 c-32 -34 -38 -59 -14 -59 20 0 64 50 65 73 0 26 -19 21 -51
-14z"/>
<path d="M570 555 c0 -22 43 -85 55 -82 19 6 16 37 -5 67 -23 32 -50 40 -50
15z"/>
<path d="M384 515 c-4 -9 -2 -21 4 -27 16 -16 47 -5 47 17 0 26 -42 34 -51 10z"/>
<path d="M330 463 c36 -42 41 -52 36 -83 -18 -122 -19 -140 -3 -140 15 0 37
53 37 88 0 28 18 9 24 -25 8 -50 22 -71 36 -57 8 8 8 29 1 75 -15 92 -15 95
25 139 42 46 38 67 -4 27 -39 -37 -108 -38 -142 -2 -44 47 -53 26 -10 -22z"/>
<path d="M160 455 c-13 -35 -13 -82 1 -91 18 -10 27 8 31 60 3 56 -15 74 -32
31z"/>
<path d="M619 390 c-1 -27 -2 -56 -3 -62 -2 -24 33 -20 39 4 15 66 9 108 -15
108 -17 0 -20 -7 -21 -50z"/>
<path d="M173 325 c-13 -34 37 -109 59 -87 7 7 5 22 -8 51 -21 44 -42 59 -51
36z"/>
<path d="M558 245 c-32 -38 -35 -55 -11 -55 23 0 73 49 73 72 0 29 -32 20 -62
-17z"/>
<path d="M260 201 c0 -20 73 -57 91 -46 19 12 8 32 -26 48 -46 22 -65 21 -65
-2z"/>
<path d="M420 181 c-14 -4 -25 -13 -25 -21 0 -18 79 -17 101 1 30 25 -15 37
-76 20z"/>
</g>
</svg>
